<mxfile host="Electron" modified="2023-10-30T07:59:43.691Z" agent="Mozilla/5.0 (Macintosh; Intel Mac OS X 10_15_7) AppleWebKit/537.36 (KHTML, like Gecko) draw.io/22.0.3 Chrome/114.0.5735.289 Electron/25.8.4 Safari/537.36" etag="8_n0Xou1aQzyH4LJBiOc" version="22.0.3" type="device">
  <diagram name="第 1 页" id="Qt12Brw98Gq-G3f8EBxN">
    <mxGraphModel dx="1026" dy="658" grid="1" gridSize="10" guides="1" tooltips="1" connect="1" arrows="1" fold="1" page="1" pageScale="1" pageWidth="827" pageHeight="1169" math="0" shadow="0">
      <root>
        <mxCell id="0" />
        <mxCell id="1" parent="0" />
        <mxCell id="BFCwz6IsiF-BAtfAcDIy-1" value="" style="shape=image;verticalLabelPosition=bottom;labelBackgroundColor=default;verticalAlign=top;aspect=fixed;imageAspect=0;image=data:image/png,iVBORw0KGgoAAAANSUhEUgAAAzwAAABeCAYAAADmIhEiAAAMP2lDQ1BJQ0MgUHJvZmlsZQAASImVVwdYU8kWnltSIbTQpYTeBOkEkBJCCyC9CDZCEiCUGANBxV4WFVy7WMCGrooodkAsKKJYWAR7XyyoKOtiwa68SQFd95XvzffNnf/+c+Y/Z86dufcOAOonuWJxHqoBQL6oUBIfFsQYnZrGID0FVKAHyMAQeHJ5BWJWbGwUgGWw/Xt5dx0gsvaKo0zrn/3/tWjyBQU8AJBYiDP4Bbx8iA8BgFfyxJJCAIgy3mJyoViGYQXaEhggxAtlOEuBK2U4Q4H3yW0S49kQtwBAVuVyJVkAqHVAnlHEy4Iaan0QO4v4QhEA6gyI/fPzJ/IhTofYFtqIIZbpMzN+0Mn6m2bGkCaXmzWEFXORF3KwsECcx536f6bjf5f8POmgD2tYVbMl4fGyOcO83cydGCnDqhD3ijKiYyDWgviDkC+3hxilZkvDkxT2qBGvgA1zBnQhduZzgyMhNoI4VJQXHaXkMzKFoRyI4QpBpwgLOYkQ60O8UFAQkqC02SyZGK/0hdZlStgsJX+OK5H7lfm6L81NYin1X2cLOEp9TK04OzEFYirElkXC5GiI1SB2KshNiFTajCzOZkcP2kik8bL4LSGOF4jCghT6WFGmJDReaV+aXzA4X2xztpATrcQHCrMTwxX5wVp4XHn8cC5Yh0DEShrUERSMjhqcC18QHKKYO/ZMIEpKUOp8EBcGxSvG4lRxXqzSHjcX5IXJeHOI3QuKEpRj8eRCuCAV+nimuDA2UREnXpzDjYhVxIMvA1GADYIBA0hhzQATQQ4QtvfW98I7RU8o4AIJyAIC4KhkBkekyHtE8JoAisGfEAlAwdC4IHmvABRB/usQq7g6gkx5b5F8RC54AnE+iAR58F4qHyUa8pYMHkNG+A/vXFh5MN48WGX9/54fZL8zLMhEKRnpoEeG+qAlMYQYTAwnhhLtcEPcH/fFo+A1EFZXnIl7D87juz3hCaGT8JBwjdBFuDVBOFfyU5SjQBfUD1XmIuPHXODWUNMDD8L9oDpUxnVxQ+CIu0M/LDwAevaALFsZtywrjJ+0/zaDH56G0o7iTEEpepRAiu3PI9Xs1TyGVGS5/jE/ilgzhvLNHur52T/7h+zzYRv5syW2EDuItWKnsPPYMaweMLAmrAFrw47L8NDqeixfXYPe4uXx5EId4T/8DT5ZWSYLnGuce5y/KPoKBVNk72jAniieKhFmZRcyWPCLIGBwRDyn4QxXZ1c3AGTfF8Xr602c/LuB6LZ95+b9AYBf08DAwNHvXEQTAPu94PY/8p2zZcJPhwoA547wpJIiBYfLLgT4llCHO80AmAALYAvn4wo8gS8IBCEgAsSARJAKxsPos+E6l4DJYDqYA0pAGVgGVoP1YBPYCnaCPeAAqAfHwClwFlwEHeAauANXTzd4AfrAO/AZQRASQkPoiAFiilghDogrwkT8kRAkColHUpF0JAsRIVJkOjIPKUNWIOuRLUg1sh85gpxCziOdyC3kAdKDvEY+oRiqimqjxqg1OgJloiw0Ek1Ex6FZ6CS0GJ2PLkHXolXobrQOPYVeRK+hXegLtB8DmAqmi5lhjhgTY2MxWBqWiUmwmVgpVo5VYbVYI3zOV7AurBf7iBNxOs7AHeEKDseTcB4+CZ+JL8bX4zvxOrwFv4I/wPvwbwQawYjgQPAhcAijCVmEyYQSQjlhO+Ew4QzcS92Ed0QiUZdoQ/SCezGVmEOcRlxM3EDcSzxJ7CQ+IvaTSCQDkgPJjxRD4pIKSSWkdaTdpCbSZVI36QNZhWxKdiWHktPIIvJccjl5F/kE+TL5KfkzRYNiRfGhxFD4lKmUpZRtlEbKJUo35TNVk2pD9aMmUnOoc6hrqbXUM9S71DcqKirmKt4qcSpCldkqa1X2qZxTeaDyUVVL1V6VrTpWVaq6RHWH6knVW6pvaDSaNS2QlkYrpC2hVdNO0+7TPqjR1ZzUOGp8tVlqFWp1apfVXqpT1K3UWerj1YvVy9UPql9S79WgaFhrsDW4GjM1KjSOaNzQ6Neka7poxmjmay7W3KV5XvOZFknLWitEi681X2ur1mmtR3SMbkFn03n0efRt9DP0bm2ito02RztHu0x7j3a7dp+Olo67TrLOFJ0KneM6XbqYrrUuRzdPd6nuAd3rup/0jPVYegK9RXq1epf13usP0w/UF+iX6u/Vv6b/yYBhEGKQa7DcoN7gniFuaG8YZzjZcKPhGcPeYdrDfIfxhpUOOzDsthFqZG8UbzTNaKtRm1G/sYlxmLHYeJ3xaeNeE12TQJMck1UmJ0x6TOmm/qZC01WmTabPGToMFiOPsZbRwugzMzILN5OabTFrN/tsbmOeZD7XfK/5PQuqBdMi02KVRbNFn6Wp5SjL6ZY1lretKFZMq2yrNVatVu+tbaxTrBdY11s/s9G34dgU29TY3LWl2QbYTrKtsr1qR7Rj2uXabbDrsEftPeyz7SvsLzmgDp4OQocNDp3DCcO9h4uGVw2/4ajqyHIscqxxfOCk6xTlNNep3unlCMsRaSOWj2gd8c3ZwznPeZvzHRctlwiXuS6NLq9d7V15rhWuV91obqFus9wa3F65O7gL3De63/Sge4zyWODR7PHV08tT4lnr2eNl6ZXuVel1g6nNjGUuZp7zJngHec/yPub90cfTp9DngM9fvo6+ub67fJ+NtBkpGLlt5CM/cz+u3xa/Ln+Gf7r/Zv+uALMAbkBVwMNAi0B+4PbApyw7Vg5rN+tlkHOQJOhw0Hu2D3sG+2QwFhwWXBrcHqIVkhSyPuR+qHloVmhNaF+YR9i0sJPhhPDI8OXhNzjGHB6nmtMX4RUxI6IlUjUyIXJ95MMo+yhJVOModFTEqJWj7kZbRYui62NADCdmZcy9WJvYSbFH44hxsXEVcU/iXeKnx7cm0BMmJOxKeJcYlLg08U6SbZI0qTlZPXlscnXy+5TglBUpXaNHjJ4x+mKqYaowtSGNlJactj2tf0zImNVjusd6jC0Ze32czbgp486PNxyfN/74BPUJ3AkH0wnpKem70r9wY7hV3P4MTkZlRh+PzVvDe8EP5K/i9wj8BCsETzP9MldkPsvyy1qZ1ZMdkF2e3StkC9cLX+WE52zKeZ8bk7sjdyAvJW9vPjk/Pf+ISEuUK2qZaDJxysROsYO4RNw1yWfS6kl9kkjJ9gKkYFxBQ6E2/JFvk9pKf5E+KPIvqij6MDl58sEpmlNEU9qm2k9dNPVpcWjxb9PwabxpzdPNps+Z/mAGa8aWmcjMjJnNsyxmzZ/VPTts9s451Dm5c36f6zx3xdy381LmNc43nj97/qNfwn6pKVErkZTcWOC7YNNCfKFwYfsit0XrFn0r5ZdeKHMuKy/7spi3+MKvLr+u/XVgSeaS9qWeSzcuIy4TLbu+PGD5zhWaK4pXPFo5amXdKsaq0lVvV09Yfb7cvXzTGuoa6ZqutVFrG9ZZrlu27sv67PXXKoIq9lYaVS6qfL+Bv+HyxsCNtZuMN5Vt+rRZuPnmlrAtdVXWVeVbiVuLtj7Zlryt9Tfmb9XbDbeXbf+6Q7Sja2f8zpZqr+rqXUa7ltagNdKant1jd3fsCd7TUOtYu2Wv7t6yfWCfdN/z/en7rx+IPNB8kHmw9pDVocrD9MOldUjd1Lq++uz6robUhs4jEUeaG30bDx91OrrjmNmxiuM6x5eeoJ6Yf2Kgqbip/6T4ZO+prFOPmic03zk9+vTVlriW9jORZ86dDT17upXV2nTO79yx8z7nj1xgXqi/6Hmxrs2j7fDvHr8fbvdsr7vkdamhw7ujsXNk54nLAZdPXQm+cvYq5+rFa9HXOq8nXb95Y+yNrpv8m89u5d16dbvo9uc7s+8S7pbe07hXft/oftUfdn/s7fLsOv4g+EHbw4SHdx7xHr14XPD4S/f8J7Qn5U9Nn1Y/c312rCe0p+P5mOfdL8QvPveW/Kn5Z+VL25eH/gr8q61vdF/3K8mrgdeL3xi82fHW/W1zf2z//Xf57z6/L/1g8GHnR+bH1k8pn55+nvyF9GXtV7uvjd8iv90dyB8YEHMlXPmvAAYrmpkJwOsdANBSAaDD8xl1jOL8Jy+I4swqR+A/YcUZUV48AaiF/+9xvfDv5gYA+7bB4xfUVx8LQCwNgERvgLq5DdXBs5r8XCkrRHgO2BzzNSM/A/ybojhz/hD3zy2QqbqDn9t/AdYpfIJ77Dx3AAAAimVYSWZNTQAqAAAACAAEARoABQAAAAEAAAA+ARsABQAAAAEAAABGASgAAwAAAAEAAgAAh2kABAAAAAEAAABOAAAAAAAAAJAAAAABAAAAkAAAAAEAA5KGAAcAAAASAAAAeKACAAQAAAABAAADPKADAAQAAAABAAAAXgAAAABBU0NJSQAAAFNjcmVlbnNob3TClDMWAAAACXBIWXMAABYlAAAWJQFJUiTwAAAB1WlUWHRYTUw6Y29tLmFkb2JlLnhtcAAAAAAAPHg6eG1wbWV0YSB4bWxuczp4PSJhZG9iZTpuczptZXRhLyIgeDp4bXB0az0iWE1QIENvcmUgNi4wLjAiPgogICA8cmRmOlJERiB4bWxuczpyZGY9Imh0dHA6Ly93d3cudzMub3JnLzE5OTkvMDIvMjItcmRmLXN5bnRheC1ucyMiPgogICAgICA8cmRmOkRlc2NyaXB0aW9uIHJkZjphYm91dD0iIgogICAgICAgICAgICB4bWxuczpleGlmPSJodHRwOi8vbnMuYWRvYmUuY29tL2V4aWYvMS4wLyI+CiAgICAgICAgIDxleGlmOlBpeGVsWURpbWVuc2lvbj45NDwvZXhpZjpQaXhlbFlEaW1lbnNpb24+CiAgICAgICAgIDxleGlmOlBpeGVsWERpbWVuc2lvbj44Mjg8L2V4aWY6UGl4ZWxYRGltZW5zaW9uPgogICAgICAgICA8ZXhpZjpVc2VyQ29tbWVudD5TY3JlZW5zaG90PC9leGlmOlVzZXJDb21tZW50PgogICAgICA8L3JkZjpEZXNjcmlwdGlvbj4KICAgPC9yZGY6UkRGPgo8L3g6eG1wbWV0YT4KuuIaNgAAABxpRE9UAAAAAgAAAAAAAAAvAAAAKAAAAC8AAAAvAAAc3krp4RMAAByqSURBVHgB7F0HeBVF1z5ASCEFKSJVOpGiCMYPlOYf6SDFRESESAnSCR0EpIUSkFBClV5EOgm9GDC0D1DpUkWK9A7poST/nvsZuHdn9ua2LXfvOTw8d/fs7JR3NrvzzpxzJluGIEBCCBAChAAhQAgQAoQAIUAIEAKEgA4RyEaER4e9Sk0iBAgBQoAQIAQIAUKAECAECAEDAkR46EEgBAgBQoAQIAQIAUKAECAECAHdIkCER7ddSw0jBAgBQoAQIAQIAUKAECAECAEiPPQMEAKEACFACBAChAAhQAgQAoSAbhEgwqPbrqWGEQKEACFACBAChAAhQAgQAoQAER56BggBQoAQIAQIAUKAECAECAFCQLcIEOHRbddSwwgBQoAQIAQIAUKAECAECAFCgAgPPQOEACFACBAChAAhQAgQAoQAIaBbBIjw6LZrqWGEACFACBAChAAhQAgQAoQAIUCEh54BQoAQIAQIAUKAECAECAFCgBDQLQJEeHTbtdQwQoAQIAQIAUKAECAECAFCgBAgwkPPACFACBAChAAhQAgQAoQAIUAI6BYBIjy67VpqGCFACBAChAAhQAgQAoQAIUAIEOGhZ4AQIAQIAUKAECAECAFCgBAgBHSLABEe3XYtNQwReJkOkJqaYQJG9uwAXp7ZTHR0QggQAoSAtQgkJZu+W7IJr5VcXvRusRZHSk8IEALyIaDkOChFGG+lC+MuY8HxFo671BYiPGr3AJUvKwJRi9NgTFSqSRk+3tng0l4/cMthoqYTQoAQIAQsRuDC5XSoEZTApN+xzAcC3qWXCwMMKQgBQkAVBJQaB714CVCpfjw8eGQ6ETQyzBN6tfdQpe3GhRLhMUaDjnWFwL2HGVChbjzTptDW7hAx2IvRk4IQIAQIAUsRwFnTjz9PgL+vmU5nItnZvtQHcLWHhBAgBAgBNRFQehw0aEIKLFrzjGnyuVg/eDOfui9FIjxMt5BCLwgMGJcCS9axf3ind/pCoQIaWF/VC9DUDkLARRHYFPscOg5MZlo/PyIXtGyQk9GTghBwVgQyMjIE83BTawlsi7u7O+TIQSuaWu1XpcdBN++kQ+VG7Mp3+2B3mDxM3YlmIjxafUqpXnYhcOavl1CnVSKTR7e2HhDe35PRk4IQIAScD4EMyICHCU/gZUY6+Hl6g5e7sn/baKte64sEQPM2Yyn8VnY4EuNDvoLGoNCxUyMQHR0Nn3/+OdOGwYMHQ0REBKMnhfoIqDUOGjopBeatZCeb963xgQpl1SPHRHjUfyapBjIgENwtCeIOv2ByPvOLH7yVX91lVaZSpCAERAg8THwCW07shWNXz8K9+IdwL+ER5MieQwjC8RLy5PKDgrnzw3vFykGzqoGGY9HtujtFYnPi2nk4du0c3Hx0F248vgO3Ht+DpynspIa3Ry4DNgElKsIn5T+EAn75ZMVj26/PIaQfu8rzfW9PCOugvt26rI2nzF0GgZUrV0KbNm2Y9vbq1QuioqIYPSnUR0CtcdCd++mCLw+7yhP4sRusmeWtGjBEeFSDngqWC4Ff9r+Ar3onMdn3FgYfI4RBCAkhoFUErj64CZO2LoLTNy5aXMWyBYtD/4btoWKRMhbf4ywJ/3l4GzYfj4PNJ+IgKY0lFZa0o3rpytCpThC8U6ikJcmtToOrPHXbJsKpc4LHrkjOCnbrBVS2WxdViU4JAZsQIMJjE2yq3aT2OGjElFSYvTyNaf+qmd5Qt4Ybo1dCQYRHCZSpDMUQwCghGDlJ7EiMFbiwxw/y5aHVHcU6gwqyCoGNx/bA5O2LrbrHOHFonWAIqdkMsgn/nF3W/LYDYo7uhuuP7jisKa2rNYauga0MK2UOy/TfjKQGF1qwW3d0W23Jb8aMGfDLL78wt0ZGRkLZsmUZPSm0hwARntd9cufOHfj2229fK/49CggIgBEjRjB6pRVaGAdJBUsoXTw7HFzvq0qUXCI8Sj+JVJ6sCGyPew7t+rIzweS7IyvslLmdCEzbtRzW/77LzlwAavsHwLjgMLvzUTuDWuPayVKFUgWKwdxvRjjc10fw54bqLfkTLVqITiQLmFZk2qpVK1i7di1zx+7duyEwMJDRk0J7CBDhed0np06dgsqVK79W/HtUo0YNOHDgAKNXWqGVcdCQiSmwYBXry7NiWi5oUEf5oC5EeJR+Eqk8WRFo1SMJ9vyX9d2JXeED71dQz1lO1kZT5k6NwPZT+2H85nkOa0PnT4SVnhrNHZafGhnJRXiwLeULl4JZId9DzhyONauYuTQNRk1jo1iN6uMJPb9xbV8eIjxq/BU5tkwiPK/x1Drh0co46I/TL6FhCOtniSZtaNqmtBDhURpxKk82BK5cT4cPm7GOcriEeiTGV7ZyKWNCwFYELt39BzosGGb29mJ5CxpWbjBoQXZhc5d9F4/C5XvXzd4ztc0QCChZ0WwaLV+0hPCg71KRPG9BPp83IO15Gly9f9NgAscLZCBuawsh2EP/Rh3EarvOr99OhyqN2fcPRmw7vs1XMKWzK3unvpkIj1N3n6HyRHhe96GWCY+WxkG48h0gjMmu3TCNYolI/rHZF0oUVfalSITn9TNMR06OQHhUKkxfzDrJYaACDFhAQghoDYFuS0bDnzcvcauFBGdsUG+oWa4qc/24EK1swKof4NmL58w1VLwlRCZb22uq0/rz8AiPu1tOaFK5jiHy2rtFy0mu0Fy8cxVGRc/K0v/npy4ToXj+wlz8bFU275wEB/9gV5hXC5GJPhUiFLmqEOFx/p5/8OAB7N27l2lIpUqVwN/fn9HrWaFlwqO1cVDk/DSYMJtd+e7T0QOG91I2iBQRHj3/VbpQ29IEM1H/wHhITBKmFERybKsvvF1Y2ZkEURXolBBgEDh/+wp0XsR3cEWyM7f9SLORxe48fQAh876DlGfsxwQLGxsUBnXeCWDKdQaFMeEpKqzihNRsDnUrfiRJcsRtwjDWPx/aCnP3rBZfenUuh7/Tyk3PoNfIlFdlZB40+iQnLJ+aK/PU5X6J8Lhcl+u6wVolPFocB0mtOPl4ZzMEkvJwV+5RIcKjHNZUkowIRO98Dp2HsMEKagS4wcb5ytuKythUylonCIT9NEHYV+YstzW967WFL/7TgHvNWHn06hnos4K/6R8ShZXdJxsnd5pjJDx5vP0AcUCiY6sMWh0Jhy6d4N6OpHL34IUOjdr2NCEDSteO55Z3crsvFCnomhMvRHi4jwQpnRQBrRIerY6D0I8H/XnEMj8iF7RsoFzwAiI84h7Q+HlycjI8ffrUpJZeXl7wxhtvmOhc7aRllyTY/xtrShI1ygvaNFdwCsHVgHdAe+/duwcvX5q+DN98801wc9OvCRD6mTSd0o2LHpqjrek51eCvw01gpNxz7giM3DDTSGN6uKTzeCgtRCZzNkEzv/LCvjlISuyRJ8kJEDQjTNL0L6rtUKhSvLw9RTD34sQLDjzEMqynJ/Tt5JqmtUR4xE8DnTszAlolPFodBy1b/wz6jWVXvmv9xw2if1RuQpoIj5P91eGuxjNnmg5wSpUqBX///beTtcRx1U1JzYBiH/FnVdU2Z0tJSQGM2Z+YmAi5c+eGvHnzgo+Pj+Ma7+Q53b59GwoXZv0o0EG2devWTt466ervOH0Axm36kZugT/12EPRhfe41Y2WyYMrWYnovSZM2TNup9ufQvlZL49tc7njsprmw8/RBbrsHNe4In1X5P+41W5VSZm2uvNqsZcLz4sULePz4MSQkJBgmWTw8PCBfvny6nnCx9dnW4n1paWmA3xHsvzx58hj6DieB5RQtEh4tj4OkzNqwj64f8gMvT2X2jpOV8OBDcezYMea5y549O3z11VeQM6ftS1nHjx+HkydPMnmjAl+uuXLp0166W7duMHfuXJN2Fy1aFK5fNx+1yeQGnZ2gkzA6C4sFbUSvHvATq2U5x4/moUOHYMeOHXDmzBlDf/z111+GlzCvwHLlykHjxo2hfv36ULt2bfD2Vm6Wg1cftXQ3btyAYsXYFYjly5dD27Zt1aqW7OUOXTcN9l84yi1nS785kNsra1IcsWUBbD3JOhEbZ1rmrbdhceg4Y5XLHa86sg1mxa7ktlsOQnju0kuo9QUbihUroOTHndtgGZRXrlzhOrMbFxUeHg6XL182VhmOu3btCtWqVWP0Uorq1avDO++8I3XZIj1aSfz666+wdetW2Lx5M+A7iCcFChSApk2bQpMmTaBu3brg56fMt4RXFyV0+N1C4mCt4Lfs7bfftvY2Jj2u8q9atQqePzddHc2fP7+hHzJvyBBCf2HwhPnz50NsbCyghYBY3nvvPQgKCoJOnTpBkSJFxJezPN+wYQPEx/MnUfHm8+fPw8SJE5l88Jnh6ZmE/yo8PT3hyy+/hGxC9E17RQvjIKk2YLS2krX4PtabF3rDR1WVseaQlfAsXLgQQkNDuRgMGTIEJkyYwL2WlfLu3buADzTvQff19YULFy5AoUKFssrGKa8T4WG7bbIQBSSCEwWkSWBOWBopH/HFWUF84eJHMyYmRpLcsDVmNZMnT4aePXsCzi66krgi4UGH+roTO3HNrPwFM64FHcdk+QicEUy+ugoR3iyRHQPmgbeHvDOeltRDrTRH/j5liGjHKx9X0nBFzZGCu5wXDDA1O87Mf4vwca+u0Mc9s0y5f9HiAC0PlJDRo0fbvJN9eno6/Pzzz9C/f3/u2MFc/XFcERERAZ07d7ZrotZcGWpfq1mzJhw8yF8JNVc37PuoqChzSSy69vDhQ0ByIxYkETjmQ8GJblz5v3jxojiZ5PmMGTMM31bJBJwLjiAgnGy5qtTUVId899UaB3EbxVF+3ScZdu41JbOYbGgPT+gXqsy4R1bCg41B9rpmzRo8ZGTnzp2GGW7mghkFvrRw1mX79u3cVFu2bDHMyHAv6kBJhIftRKlQsCPDPKFXe/n+kBz9UkTTxBUrVgDOYrqKuCLhuRf/UPAr6cPt4mBhAB6WxQA8PSMdWs3sB3eFfCyRme2GQeW37ZsVt6QcraY5+c956Lmcv8oVWicYvhEiwDlapGzplfy4O7pNUvk5A+F59OgRNGvWzKYBvXG7K1SoYFjF561KG6dzxmOtE57Vq1fbbOY8cuRIGDVqlMXd4uhvu7mCHUV41BoHmWub8bWpC9Ng3Ew2oqiSfjyyE54nT57ABx98wF3OxlkTZOoFCxY0xsXs8ZQpUwwzNLxEgwcPNszC8K7pRUeEx7QnU9MyoGh1/tIzRmdDu3m5RK6X4uHDh60y85CrfUrk64qE57fLp6H/yklceEe17AGfVjBPeJcd3Ajz49Zx7+cpBwp+Ks0c7KfCK0erul1//hfCN87hVu/75t2gfqWPudfsUU6ckwo/zGP3BFPy425P/a25V+uEBy1B6tWrB2hi7whBE/K4uDgoXbq0I7LTTB5aJjyLFi0yMWuzBTQ0U2vZ0jJ/Rrm+7bx6O4LwqDkO4rWJp9t75AUEdWVdDzDtzSO5QYnw1LITHmzM0aNHISAgAA8ZadCggcGWNkeOrKPx/PHHH/Dhhx8yeaACZ8X37dun2+XmzEYT4clE4n+/h4+/gKYd+X9El/f7gZ+P/baxpiW+PpPrpYgTAUeOHIHy5cu/LkynR65IeNb/vgum7VrO7VEMI43hpKUE9975YmZf5jKGcH6cxCf+lqwaMRnqSDFhy3zYdnIft0W411HFImW41+xR7tr3AtqE8d9Lt4SPu7uOAkdqmfCgPwiODXi+xPb0L5KeP//80xCIxp58tHSvVgkPYoRmbTwXBmvwwz5DdwdL/Lvl+rbz6usIwqPmOIjXJp7uSXwGlKnD/0ZtXewD1d7PmgPw8rVGpwjhwQrNmjVL0o4SnbwGDRpktt7oQFalShXJlSJ8+TjCcc5sJTRwkQiPaScsWfcMBoxLMVUKZ6WLZ4cjMb6M3pEK3ksRyUrDhg2hbNmyhv9oplayZEmDbTK+sHGAf/XqVZgzZ45Z84p27drBsmXLHFldTeblioRn8vbFsPHYHm5/7B68CNzdpIO5dF8aDqdvsPbrs0K+N/ip8DYhDShZEaa2GcItT+9KNP+rNymU6y+FOP8yaKFF4b+txenW3XR4r2EC97aD633Bv5R+9uPBgDlZ+X6gSRHP76JPnz5WrWbjxGmZMpYTVBxboL+wlOBAuk2bNoY6YN4YSAknaH/77TeIjo7m1jkzL/S5RP8QvQj6oWKgHSnBQAEY6EEscvvwiMvD81q1asGnn35qGBOWKFHCECQIV/Bmz54tGYQC70MfLgyYlZWgy4R4+w/je86dOwdjxrC+lvg8TZ8+3Tip2WOMJte8uf0mtWqOg8w2UHTxg88S4NqNdJEWYMpwLwgJkn8WSDHCg5E10J9n7dq1TGNRgRGuzPkuhISEAEZu4gk6jaNfjysIER7TXpZy1FMiBKwx4UHb7n79+hlsjC2NuIYvVfxo8qIXYStv3rzJDdlsioBzn7ki4cGNQnHDULHgnjNx3y0Rq1+dx545BKNjZr86zzxoXLk2fNe0M3w1ewDcePw/597Ma/hb6I03YU2PKcYqlzne9edBwZxtLre9GI4aw1LLIc+eARSu5jqBC7LCUI2w1LhVgzlyhIGP0I9YyqQeJ1nRBGrPHv7kBLY5q3FLVrg403XcKgDJoViUJjyTJk2CAQMGcCOboa8WRveU8vH+7LPPYNOmTeImWH2utbDUao6DrAGvaackOHyM3S9RKd9GxQgPgoJRrfAlg4McseByIz5EGEddLD/99BPgjDdPBg4cCPgH4CpChMe0p7+bmALzVwmjC5E0r5cTFk6SL0IbFodhShs1amQgLWgOYEyARNWRPMWoM1WrVuVet9bRkpuJxpWuSHi+XTwSzt26zPTMm355YUMv/uxgYmoyNJ/ek1mp8HL3hJiwGZBL+A37aQIcu3aWyRfN3Tb1mcXo9a5IfZ4Gzab1lNynaFGnsVC2YHHZYMhfhU94MHIkRpB0JVGD8ODKjlSIYFwhwIFvVht2o7kRTrZKTdRiu9CZ3hVEC4Rn27Zthm+uObwxvDV+U6V8tnDfHnc7bUq1RnjUHAeZ6wvxtW/6J8PWPWyktq5fe8DYAZ7i5A4/V5TwYO3N+eHwXh64xIpx3nmCK0K4zGrvw8vLW6s6IjymPRM6OBlidrF/QO2D3WHyMC/TxA4+wxerJb5nWRU7dOhQboh2nATQ+/5Krkh42s4dDNce3mIei1IFisHSzuMZPSpwk1LcrFQs44P7QC3/Dwzq79ZOhQMX2X3PkBTtGjhffKvuz2fEroA1R3Zw21nbPwDGBYdxrzlKiSZtaNomFqXMN8TlqnmuNOF5JiyxYYhj3IxSLGh2jKvn+GuJ4B5r/v7+kivx9+/f54ZTtiRvZ0qjNuHp27cvYNAqS8TcJDm6P1SsWNGSbCTTaI3wqDkOkgSJc6FveAos38BOULdskBPmR8g7QY3VUZzwYKHmnBznzZtniHWP6ZCJf/zxx1yHQ3xZ4UOH9puuJER4THtbKhRjn44eMLyX/DMGprWx7ezatWuSz7EjZqNsq5Uyd7ki4QkWQlLzQkqXL1wK5nVg99ZBnx303RFLtdLvweTWA1+pR0XPgt1nD786zzzIylQuM52efnGlC1e8eIJ4rOs5FfL7stYEvPS26gLbJMKpc8KmPCJRynxDVKyqp0oTHvQ1kTJzR7+hqVOnWoUHpkeTZZ6gPyZuoKp3UZvwoO9r8eKWrcjiyhz60/AIL67WBQcH29VdWiM8zjIOGhOVClGL1YteqQrhQX8e3AUXnQJ5cvr0aahUqZIhkMEPP/zASwIbN240xNXnXtSxkgiPaedWa5EAf19jZ1FH9/WEHiHy7cFjWgv7znClyM3NjZvJpUuXdBf+1Lihrkh4mk7pBk9TEo1hMBxXLuYPM0OGm+hfpr+EL2b1g/vxj0z0OGhH87e8Prlf6c1FI9s/jO//+OpmHR08SnoKrQV/Jl4AB2xm18Av4euP5Pf5bN0zCWIPsvbqSplvaKlLlSY8w4YNg/Hj+aulJ0+eNJjWW4MPruLgAJon6DMi5V/MS++sOjUJT/v27WHx4sVWQYfBg9BHSyy2bEQqzkNrhMdZxkEzl6bBqGmpYjgNQVwwmIvcogrhwUaZ8+dBB3CMgCHFwnGmJTIyUm5sZM8/KSkJcHdhawRnp8REEVe7cJnWGsHQjLxdja3JQwtpS9SMh8SkDKYq00Z6QdsW7oxeq4rKlStzbY5///13yZDuWmzLrVu3AE1ALBU02UP/J7FMmDCB6yArTmd8XqhQIacIS1//h87cwfh/Sr0LkV+ZRqtcvD8aFu3bYNxMw3H/Rh2gRdVAE32kEP0tRiL6GwZDQJKkd0kXJtPQR+rC7SvcpioZsa7L0GRYv501tw1qlBN+HC+/+QYXAJWUShMeqcEumsFjoAFb5OuvvzZE+RLfi5E4MUCC3kVNwrNu3TrDJLk1GIeGhsLChQuZW8aNGwdoRm6PaI3wOMs4aHn0M+g7ho2q6+OdDa4e8LOnSyy6VzXCg7XD0I/VqlWzqKKZiXAfngMHDujCb6d79+6G8MSZbVPyF2er7t5lIzopWQdHlCX1hz51hBe0a6ku4UEyizODiYmJhqV1NE/D1U2eYNSZs2dZh3MM94pmnc4gaBePfkdqCW5O16FDB7WKt7hcKcJTSdgPZo6wL0ym3Hx8T1ip6J95+uoXHe3R4V4s5gjP3qFLhfDL+gmFLG575nnElgWw9eTezFOTXwzesKp7pCHAg8kFmU46D0mG6J0s4WnVJCfMHkuEB2HfvXs3BAaaEnd7uwPfsblz5+aaM4WHh8Pw4cNtKsKcXwhO4GYVAMGmQjV0k5qEx5ZoeCNGjADsb7FgMAucULNHnIXwaGEcZIzzsvXPoN9YlvDkz5sNzu/WOeFBIDBmOa5aWCK4koHL0biviR6kS5cugD5LaghiiWE3nV1qBCXAhcusSdvIME/o1V5Zkzb0xUH7YNwAFzcOtXejNOwbOQYEcvX5P//8Y7GNtRx1MPb/kyN/R+XZbFoP7iahxfIWhJ+7vTbh7bJkFJy9yc4cYxpMKxZXN2lbciAGFu5dL4bFcI6rW4s6hQMGhlBKgrslQdzhF0xx3dt5wJh+zuFfyFTeRoWSKzwYmjhfvnzcmuKMf8eOtoUij42NhXr16nHzPXHiBOAqvZ5FTcKDlgDWTqbhnjw9evRgugSJ0OjRrK8kk9CMQmuER0vjIDOwwXTBfydc8OMRS8WyOWDvGh+x2uHnqq7wYGtwNgZj3aNPTlaCplwtWrTIKpnTXCfCY39XSQ0qenfwgBG9lRlU4C7eGB7d3H4NtrY0Li4O6tSpY+vtit5HhMcyuKWCFhiHj8aIbBiZTSwda38OHWq1FKsN564ctGDbyX2AhE9KJn3ZHz4q877UZVn0UkELvhfeS2HC+8mVREnCg87tUpOiW7ZsgSZNmtgEvdQgFzPbv38/1zTXpoI0epOahOf58+eSfq5ScC1YsOBVACzjNNZEezO+z/hY6lmoUaOGwQLJOK0Sx1oYB1nSztHTU2HGEjZowSfV3WDdHG9LsrArjeqEB2tvzp8ns3WOeEgz89LKLxEe+3tCyk4e/XfQj0dOQV+VQYMGWR3xx5o62fOBtqYcR6QlwmMZiiHzhsCV+zeZxLgKgb428UJAg5ZRvZk9d97yywere0RK+uK4aljqg38dhyFrpjB4ZioGCpuLNhM2GVVa3vk0Hh48Yk1Ync2/0BG4KUl4pAaj2A57fCLv3LkD6CfIE2d6T/Pqb4lOLcJjq/m9KxEeNcdBljw7mWnCRqfAihg2LPUXgpnvHAXMfP8fAAD//7LYA1kAABj4SURBVO2dB3wUxRfHHz2kCkaBUIICAtKkgxq6dBEEhVADEfnTpIkQFKSJdOk1ECJIlyZIlSII0pEuUkUUBBQCBEIS+N+7//9Icju7d7lsu8tv+PC53TezszPf2ezOm3nzJsNTSyAThCVLllDr1q1lS/Lw4UPy8vKSjXfHiC5dutCcOXMMKbqfnx/FxMQYcm81bzp4wiOauShOkmWjWlkoeoK3RK6WID4+ntq2bUvLly9XK0thPuvXr6dGjRoJ48wm/P333yk4ONiwYvHfUufOnQ27v7M37rJgKJ2+dkGY/MdPv6YRa2bR1lN7JfFzOg6l4kGFJHKboOuCYXTy2nnb6bPfHD7+tK739GfnnnRw/Oo56v71CNkqhYU0o/Bq78rGaxkRWPauMPuFX3lTgxpZhHGeKnz//fdpxYoVkur98MMPVKtWLYk8LYK9e/fSG2+8IcziypUrVKBAAWGcI2FCQgJlySJuN+6/tGrVylEWbh0v10fr2bMnTZkyJc11u337NgUGBkryefHFF+nGjRsSuSNBZGSk8HvQp08fmjhxoqPLFeOPHz9OZcqUkaTh527Pnj0SudYCo/pBqa1Xuz6xtHFnvOSyrm2z0Yh+2vfvM5hB4YmLi6OQkBA6ePCgBIRNwH9Q/IflSeHIkSP0yy+/pKpKkyZNIv5jsw/z58+3Fyme58iRg5o2baqYxh0iv5oXR19MeyQpapVymWn9PB+JXC1BREQEjR492mF2r7zyCuXLl4/y5s1r/R8QECC8Zvr06fTHH39I4txJ4WElkD+KiYmJknrICa5du0aDBw+WRHMHqX79+hK5kqB27doud2aU8lU7rt+SsXTg4glhtiOb96LPvp0siWtarhb1a9BRIk8ueHdqL7oZ809ykfU4X45ctKTbeInc3QUX/75KneYNpsQn4uetSdma1L9hJ0Oq+fDRU8pfVTygtCHKlyq/lsmQchl1Uz0Vnh07dsgqUTdv3hR2qp3lkiFDBmHS6Ohoat++vTDOU4RQeJJa0mwKj1H9oCQizh016nif9h+Tvq8/6+lFvTtlcy6TNKQyhcLDGjd35B2F/fv3U6VKlRwl8+j4rl270qxZs1LUkTvUV69eTSFLLycLVz+mPsMfSqoblCsjHd/kJ5GrIThz5gy9+uqrslnxiFSPHj0oPDycgoKCZNMlj+DO/ebNm5OLrMfupPBICu+EgJW8/PnzS1IuXLjQOoMmifAAwaQtC+nbg1ucrolPNm9a02sKeWVR/iDUHtOJHidIR8+qFCpD41p97PT93CHhtX//po6Rn9LDx9LBDi5/SNHy9EWLXpTB8s+IcPmPJ1Th7XvCW+9b7UdFCmYUxnmqUE+F58CBA1S5cmUhyrNnz1LRokWFcY6EsbGx5OMjHkTj2asWLVo4ysKt46HwJDWf2RQeI/pBSTScPypWO4Zu/SM1KvtqSHZq1yyr8xm5mNJwhWfVqlXUvHlzp4rPHXt+0Hh2Ir0GKDwpW/7IyUSq2+5+SuH/z87+4E+BOdXv8IjawFYANnPj2TY50wdbOvtf7vS7+wyPfZ2cOU+PCs+aI9tpwsYoZ/BY04xt+TFVLSw1n0iewaP4x/TW2PDkomfHoVUaUrfaoc/O3f3g9v071GFOBN19KP67L5O/KE1uG0GZMho3i7J2azyFfxIrRP3XwQDKklkY5bFCPRUepQGp3bt305tvvukS58uXL9NLL70kvJYHq+rWrSuM8xQhFJ6kljSbwmNEPyiJhnNH128+oZJ1xYNAWxb6UrmS2r+vDVV4Lly4QGXLlqV798QQRBjfeecdWr16NclNLYuu8SSZqLOdnmd44hOI8lQU28ovneZDdd5Qt2fB5lqscIue2Ro1atCmTZsoWzblkXj75/Hx48ey12CGx56W+58fvXKGPlo0yqmK8EzFqBa9HaZVWssS0bgzNSxTzWEe7pAgxqLkhFlmdkSme1z+wrkK0OywoZQ1s3ithV51HDrpEU2Llq4t5PcRv5fSW9BT4WEzWf4mikJaZmKUZo727dtHVapUEd3SY2RQeJKa0mwKj979oCQSzh9t+TGBWvd6ILxAr0EgwxSeR48eWRcW8joWUeAFgEuXLhVF0YQJE6hv377COE8XQuGRtnCrHg9o208WzccuDOjqRf0/TJ3yYZeF5PT06dNUokQJiZwFly5dooIFCwrjlISs+BcuXFiYBAqPEItbC/+5f5femdzDYR24076q52QK8HZsmrl43waauV38vpwZ9jmVzCt+vhwVgk3Hdp494CiZNb7yy6WtCodTiV1IxOZr4ZY1O1f/uS68mtcqzftgJHln9RLG6ymUs1Uf2tuLenRQ951kXy8eEOS1Ko6Ct7e3bmajeio89+/fJ3bKIwrTpk2j7t27i6Icyr777jtq0qSJMB3PKhUrVkwY5ylCKDxJLWk2hYdLpmc/KImE80djZj6icXOMHQQyTOFhBwT88hEFtt9nheett96inTt3ipJQehhREVUcCo+UytQFcTRsstSWX4vRVLkFsa56kuHasKeiOnXqSCtmkUDhEWJxe2H98V3oQZzY5MlWuUFvf0gNSofYThV/P1k2gfadPyZMs/WTeZb1P67ZR/NaI15z5ExoVbkhda+jjelcfGICdY0eTr/+dUlYlOd9n6PozqOcUg6FGagotEzYUlBl8azzpq99qUIpbU03cuXKRX///bdTNeIZ64wZtV9PJKfwbN26Vfbd51QFZBIVKlSILl68KIlNi4euqVOn0kcffSTJkwU8S59aM2ZhRiYWQuFJahw5hYdn+bhvakTQsx/kSv2adXlAuw9IB6Y/7+VFPcO0HQSyldcQhYenlfkFKAodOnSgBQsWWKPYvp8Xh4vMh7iDyaPtzz//vCgbj5VB4ZE27aETiVS/vdSe39cnA1380d/yQZde46pk2bJlQvej7DqalRNXgqhNbflA4bGR8KzfEWtn0paTe2Ur9WreQlbTLNkEySLYUUHdcZ2F3sp4ZodneFwNZlB42Atb38Vj6ciV08JqBGT3pQUWZSfQzxxrO4+dTqQ6baTvIy78n/sDKKtruqew7iKhGRWe0NBQocXGokWLqE2bNqJqpEkmdz+e+bl165alDVLfCOXLlyeRRUrFihWJzd08PUDhSWphOUsPI5cX6NkPSiLh3FGCxTFb7griQaDvF/hSpTLaDgLZSqm7wnP+/HkqUqSI7f4pfl9++WU6duxYiulopWlk7mSuW7dOlxGqFAU18ETUOTbyj8xAFM9urTSiqrZHJDaz5I+pfeDZyC1bnPe8Zbv+t99+I3ZdLReg8MiRcW/5rrOHhO6nbbVa0eMryh0QaDtV/N12ah8NWzNDmIZnXHjmxdVgtMLzlJ7SoBWTaM85selzdov5Gs/s5HnuBVerqPp1USseU/9RUs+RNapkppUztV+/Y0aFR/TdYvDs2n/AgAGqt8H48eOpf//+wnzZUVKzZs2EcXLCQ4cOESs2osAeOXn2x9MDFJ6kFpZztsMpeL+mTJn06cAnlYhnGeVnltXuByW/rzPHp39LpGrvGzcIZCujrgoPbx7KU348HSgK/FLhURT70KtXL9mNrcaOHSv7YrPPxxPORR+O9K7wcLu26R1Lm3dJXfJ+OSA7dW6V+tE8uWeFR/hEz6irG7m2a9eOeJRTLkDhkSPj3nJej8KzMnJhQ9+Z5G+ZuXAUWCFoN2sgXbn9pzDp0m4TKG+OF4VxzgiNVnhGrptFm0/8JCwqr3GaHz6SggODhPFGCeVs6Yf39aJu7bQ33TCjwjNw4EAaM2aMpEk+/PBDmj17tkSeVgHvb/faa68Js6lXr57VuYwwUkYo+u7akvKgbOPGjW2nHvsLhSepae/cuSPrLTgtm9sm3cG1I736QaktHTtwYUcu9uGtkMy0ZIr2g0C2++qq8Ci9NHjnW7avFQVHihLvbCu3s7IoP3eWiRhC4SGrssN/7PahRJFMtGu5446j/XVy50p7MWzbto1480tnw88//0xVq1ZVTA6FRxGPW0cOXjWVdp4Rm8I0KlOdBjb+wGH91h/bRWM2RArTFc3zEkV2Gi6Mc1ZopMKjtF8Ru5ye03EovZK7oLNV0SWdkuvV09v86cXn1XeTb18xMyo8c+bMoS5dutgX1Xp+48YNYhN1tYOcCRrfhweu2EOsM0FpNJ8Hum7fvu3x63eYExSelE+Lv7+/cLkFK/dffvllysQ6nfGgrx79oNRWp3LTe3ThyhPJZV9P9KaGNbNI5FoJdFN45EyBuGINGjSwrn9QWjzJG4YVL15cyIFflidPnqQXXjCPWYOwoCoIofCIIbKNaMm64k2t9qz0pWKF1JtillsQy4onP4cBAQHiQiaT8jq1jh07JpOID6HwiLl4gpS9jbWeKTa74fr1rtuOmlesK1vVU9fOU/evRwrX7vBFU9oOorLB4nembKZ2EUYpPJG7VlL0nrV2pfnfKSs7U9sNolL55E1BhRfqIJy79DFFjJGaszWrl4XmjvbWoQREZlR4Dh48KLtpOM/yTJ8+nTJnzqwqH96gm7+XosDval53kydPHlH0Mxl7fKtevbpw7Q4nYnM8NstLDwEKT8pW5lm9DRs2pBT+/+zUqVOKm5MLL1JBqGc/yNninjibSDVDpeZsvEfiic3+uu5JpovC8+uvv8q6bGRlhU3c+CXtKCh1Ep1Rmhzl7w7xUHjkW2liZByNmi6dNu3XORtFdFPPVa2SGVq5cuWs9tyvv/66sKA8Q8SefubNmyeMtxdC4bEn4lnnA5ZPpL2/HZWtFK+/6VStGfFaFVt48vQJbTy+m8Z9HyWr7PB+NFEffGG7xOVfIxSeAxdPUL8lY2XLzB7ZKr1cSjY+NRFsDtemqnrmSLVa36fjZyyjL3Zh7VwfeqOCuh16u1s8OzWjwsPbUPC3XuSAiAvOzolGjRpFpUqVorx588ruS/askk4c8LuW8xN5a+PLuTzsEVZuw1BWiPhdf+7cOeHdeHaH43Lnzi2M9zQhFJ6ULTp58mTq3Vt+j7R+/fpZHXIUKFBAV+daevWDUtKQP2MPuuxBzj5osW2I/T3szzVXePilw2Y7cut2UuuWkj26LF682L4e1nN+YUZERAjjPEUIhUe+JeXMSXgk4dRWf8vO6/LXpiZGyfGGLZ+3336bKlSoQDwbFBcXZ3XGwaOcbMaWmgCFJzW03C/t9bu3qM2sT4g9rckFXqtSvmAJ62aamTJkpMOXT9FdywacSoHXthTJHayUxKk4IxSeTSf20BfrZjtVvrQmesE/p3Wvo7Tmw9efvZBIb7aQtkuh4Iz082o/y2bZatzFcR5mVHi41PxtdnY2hJURURg+fLisaZwo/fbt2x2aGbOyxV5jg4ODrQ6Q2IRtzZo1xO9rpRAVFUVhYWFKSUwfx8sFeKaCv1GOAjvYkXN37uySAp51K1mypPBWbBoYGBgoieNngc0eUxsiIyOpc+fOksvS4po8eWZy5U2eJvmx6Jn29fUlnhBQc3ZTr35Q8rrJHSvNOB3f5EdBuVTqlMkVwE6uucLD09Vz5861u+3/Tl2xdbx79y7xKLrcqM2uXbuoWjXP2FVcBI0VR3vlkV8S9evXFyVPd7LwT2Jp7VZp53FdpA+9Xl69EdaZM2dSt27dVOHLzzObVoimxz1d4WGPNitXrrR6tkkOk9dCOTI3SZ7enY8PXTpFfRaPVq0KnzbpQvVLvalKflB4nMc4esYjGj9X2nEcbXGc8oGKjlMclcisCg93WkuXLi3baXZUL44fNmwYDRkyxJmkz9J8/PHH1s3KnwlUOHjvvfeItyjIoJcWq0KZRVn8+++/lDNnTlGUJjKlAW45BcKsCg8DGjlyJA0ePDhNrHj2M1s2dZ2Z6NUPclTxXfsTqPl/HkiSNaqVhaIn6GPim/zmmio87H2Kp4RFgV08srMBV/zh81Rz5cqVRdlap6mdNZETZgChWxOQ+wNr2zQrTfo8u2p1e/LkiVXJ5Bd4WgK/zHnWh5X/5cuXS7LydIVHUuF0Klh+YBNN3fpNmmsfWqURdavdKs352DKAwmMjofyrNJJ5fpc/Peev0/SOpZhmVXiY4E8//WRdsytn2qZM2TWF5+nTp9b3K3t0VSO0bt3aulegJ2w0CoUnbU8Eb9zbvn17WasjZ3LXQuHRqx/kqH7dPoul5RukA9ArZvhQzarqDUA7KoctXjOF58yZM4qLttgsiM19XA1KfvZ5T5SNGzca4gvd1frgOnUIWPQQqmfZhPToKakd/dHv/Sh/HvWmUPmjzSM8rn5I2T1qdHS0tYPSsmVLKDzqPAJumwvP9AxaOYnYZXVqAy/kH9K0K9UqLh4ISm1+tvRQeGwklH9XWD7qXS0fd/vAbqjZHbWewcwKD3Ngt7281cTatWKnFEqsXJnhseU3Y8YMq+LjqrLF+fD9Bw0apKoJkq18RvxC4VGH+rfffmu1+JAz+VO6ixYKj579ILm6Xbr6hCo2uSeJLl08E21b5KvqhvCSm8gINFN4lBZ28+K3Vq3SNgrJI+wNGzakzZs3C6umNHUqvABCjyHw89EEatxJOo0a1iIrjf9UvVkeG7ATJ05Q9+7daffu3TaR4i+bdbA5HNsX2zwThoeH0/z58yXX7dixg2rUqCGRQ+CZBO7E3qNZ25fR1lN7Fdf12GrPik6NYhXpP7VaOr1Rqe1aZ36//+VH+nK92CTZ/vrwau9SWEgze3Gqzx1typrqDBUuyJ8zNy3uOk4hheMont1ht6tX/rCMtiQLvj4Z6OgGP8oRoN/sDt++aNGisgvtkxXPesjfUaPMsq5evUq8h83hw4etaxx57YyjDuO4ceOITdRcDTdv3qQRI0ZYZ2hSo/h06NDBquzwOh9PCuyFjp0v6BV4hk/OoU9MTIzQwylvzM3rXFIb5JwssEkkK65qBzbP5r0keXsKtl7666+/6Pr16w6f6ceWHUO1mC3Uux9kz7PXsIf0zRrLbqh2Qe3lBXbZK55qpvAo3hWRIKAxATkb1sPr/Sg4r3qzPLZqsNkEm1Ky1x5+OfMMJ7tS5x2Xg4KCrJ6H2FsLK+nsOQgBBJQIxCcm0O5zh+nI5dN04+5tuhFzi1gZ8s3mTXmee4FyBQRa3DIXoZqWGR2vLFmVskKcxgTYZINNN+zDmIHZKbwl2saeixnO4+Pjad++fcRODXjGidcX8X/utPLaQTY1ZtfVPNgUEhJC2bOrP1BmBg4og2cT0LsfZKMpN7tj1NodW7mg8NhI4NejCMj9wbV7Nyt9NRgfL49qbFQGBAwiEJ9AVKWZdHYnOF9G2rfKj7JmMahguC0IgEC6J2BUP6jn5w9pyTrp7M7BdX70Un71B5ydbWgoPM6SQjq3IzB00iOaFi31mmT0H53bgUSBQQAEhAT4o84fd/vwzSRvqlcd2o49F5yDAAjoS0DvftDF359QpXeka3eMWM9oTxoKjz0RnHsMgTsxT+m1hvfo/oOnKeoU2iQrTR2GWZ4UUHACAiCQKgI8u1O+8T3680bKtTshlTLT6tk+qcoLiUEABEBACwJ694N6DHlIS79LObvD6xmPWZxG6emtUsQSCo+ICmQeQ2Dessc0YHTKEVj+42NXsZkzeUw1UREQAAGdCRw/k0i1Wks3Gt21zJdKvIKXi87NYarb8RohdghhlsDbfxjlnMIsDNJzOfTqB7EDl8LVYySDzGMjslOn941fzwiFJz3/FaDuIAACIAACIAACqhFgN8Nmc3KwdOlS4q0PEEAgPROAwpOeWx91BwEQAAEQAAEQUI1AbGws+fiYy6QxKiqKwsLCVKsjMgIBdyQAhccdWw1lBgEQAAEQAAEQMB0BKDymaxIUCASsBKDw4EEAARAAARAAARAAARUIQOFRASKyAAENCEDh0QAqsgQBEAABEAABEEh/BKDwpL82R43dgwAUHvdoJ5QSBEAABEAABEDA5AQSExNpzJgxFBcn3QPOqKKHhoZSsWLFjLo97gsCpiAAhccUzYBCgAAIgAAIgAAIgAAIgAAIaEEACo8WVJEnCIAACIAACIAACIAACICAKQhA4TFFM6AQIAACIAACIAACIAACIAACWhCAwqMFVeQJAiAAAiAAAiAAAiAAAiBgCgJQeEzRDCgECIAACIAACIAACIAACICAFgSg8GhBFXmCAAiAAAiAAAiAAAiAAAiYggAUHlM0AwoBAiAAAiAAAiAAAiAAAiCgBQEoPFpQRZ4gAAIgAAIgAAIgAAIgAAKmIACFxxTNgEKAAAiAAAiAAAiAAAiAAAhoQQAKjxZUkScIgAAIgAAIgAAIgAAIgIApCEDhMUUzoBAgAAIgAAIgAAIgAAIgAAJaEIDCowVV5AkCIAACIAACIAACIAACIGAKAlB4TNEMKAQIgAAIgAAIgAAIgAAIgIAWBKDwaEEVeYIACIAACIAACIAACIAACJiCABQeUzQDCgECIAACIAACIAACIAACIKAFASg8WlBFniAAAiAAAiAAAiAAAiAAAqYgAIXHFM2AQoAACIAACIAACIAACIAACGhBAAqPFlSRJwiAAAiAAAiAAAiAAAiAgCkI/BcIFydA0BCo0AAAAABJRU5ErkJggg==;" vertex="1" parent="1">
          <mxGeometry width="828" height="94" as="geometry" />
        </mxCell>
        <mxCell id="BFCwz6IsiF-BAtfAcDIy-2" value="&lt;font style=&quot;font-size: 24px;&quot;&gt;: Double&lt;/font&gt;" style="text;html=1;strokeColor=none;fillColor=none;align=center;verticalAlign=middle;whiteSpace=wrap;rounded=0;" vertex="1" parent="1">
          <mxGeometry x="200" y="80" width="100" height="30" as="geometry" />
        </mxCell>
        <mxCell id="BFCwz6IsiF-BAtfAcDIy-4" value="&lt;font style=&quot;font-size: 24px;&quot;&gt;: Double&lt;/font&gt;" style="text;html=1;strokeColor=none;fillColor=none;align=center;verticalAlign=middle;whiteSpace=wrap;rounded=0;" vertex="1" parent="1">
          <mxGeometry x="279.38" y="150" width="93.75" height="30" as="geometry" />
        </mxCell>
        <mxCell id="BFCwz6IsiF-BAtfAcDIy-5" value="" style="strokeWidth=2;html=1;shape=mxgraph.flowchart.annotation_2;align=left;labelPosition=right;pointerEvents=1;rotation=-90;" vertex="1" parent="1">
          <mxGeometry x="313.75" y="-21.25" width="25" height="297.5" as="geometry" />
        </mxCell>
        <mxCell id="BFCwz6IsiF-BAtfAcDIy-6" value="" style="strokeWidth=2;html=1;shape=mxgraph.flowchart.annotation_2;align=left;labelPosition=right;pointerEvents=1;rotation=-90;" vertex="1" parent="1">
          <mxGeometry x="480.01" y="-126.25" width="25" height="630" as="geometry" />
        </mxCell>
        <mxCell id="BFCwz6IsiF-BAtfAcDIy-7" value="&lt;font style=&quot;font-size: 24px;&quot;&gt;: Int&lt;/font&gt;" style="text;html=1;strokeColor=none;fillColor=none;align=center;verticalAlign=middle;whiteSpace=wrap;rounded=0;" vertex="1" parent="1">
          <mxGeometry x="445.63" y="210" width="93.75" height="30" as="geometry" />
        </mxCell>
        <mxCell id="BFCwz6IsiF-BAtfAcDIy-8" value="" style="strokeWidth=2;html=1;shape=mxgraph.flowchart.annotation_2;align=left;labelPosition=right;pointerEvents=1;rotation=-90;" vertex="1" parent="1">
          <mxGeometry x="401.5" y="-140" width="25" height="790" as="geometry" />
        </mxCell>
        <mxCell id="BFCwz6IsiF-BAtfAcDIy-9" value="&lt;font style=&quot;font-size: 24px;&quot;&gt;: Int&lt;/font&gt;" style="text;html=1;strokeColor=none;fillColor=none;align=center;verticalAlign=middle;whiteSpace=wrap;rounded=0;" vertex="1" parent="1">
          <mxGeometry x="367" y="276.25" width="93.75" height="30" as="geometry" />
        </mxCell>
        <mxCell id="BFCwz6IsiF-BAtfAcDIy-10" value="&lt;font style=&quot;font-size: 24px;&quot;&gt;: Int&lt;/font&gt;" style="text;html=1;strokeColor=none;fillColor=none;align=center;verticalAlign=middle;whiteSpace=wrap;rounded=0;" vertex="1" parent="1">
          <mxGeometry x="10" y="80" width="63.75" height="30" as="geometry" />
        </mxCell>
      </root>
    </mxGraphModel>
  </diagram>
</mxfile>
